<svg width="32" height="32" viewBox="0 0 32 32" fill="none" xmlns="http://www.w3.org/2000/svg">
<path fill-rule="evenodd" clip-rule="evenodd" d="M29.185 21.1941H23.7877C21.2584 21.1941 19.1997 19.1367 19.1984 16.6087C19.1984 14.0781 21.257 12.0194 23.7877 12.0181H29.185C29.737 12.0181 30.185 12.4661 30.185 13.0181C30.185 13.5701 29.737 14.0181 29.185 14.0181H23.7877C22.3597 14.0194 21.1984 15.1807 21.1984 16.6074C21.1984 18.0327 22.361 19.1941 23.7877 19.1941H29.185C29.737 19.1941 30.185 19.6421 30.185 20.1941C30.185 20.7461 29.737 21.1941 29.185 21.1941Z" fill="black"/>
<path fill-rule="evenodd" clip-rule="evenodd" d="M24.3978 17.5248H23.9818C23.4298 17.5248 22.9818 17.0768 22.9818 16.5248C22.9818 15.9728 23.4298 15.5248 23.9818 15.5248H24.3978C24.9498 15.5248 25.3978 15.9728 25.3978 16.5248C25.3978 17.0768 24.9498 17.5248 24.3978 17.5248Z" fill="black"/>
<mask id="mask0_137_779" style="mask-type:luminance" maskUnits="userSpaceOnUse" x="2" y="4" width="29" height="26">
<path fill-rule="evenodd" clip-rule="evenodd" d="M2.66675 4H30.1849V29.5639H2.66675V4Z" fill="white"/>
</mask>
<g mask="url(#mask0_137_779)">
<path fill-rule="evenodd" clip-rule="evenodd" d="M10.6636 6C7.35693 6 4.66626 8.69067 4.66626 11.9973V21.5667C4.66626 24.8733 7.35693 27.564 10.6636 27.564H22.1889C25.4956 27.564 28.1849 24.8733 28.1849 21.5667V11.9973C28.1849 8.69067 25.4956 6 22.1889 6H10.6636ZM22.1889 29.564H10.6636C6.25426 29.564 2.66626 25.976 2.66626 21.5667V11.9973C2.66626 7.58667 6.25426 4 10.6636 4H22.1889C26.5983 4 30.1849 7.58667 30.1849 11.9973V21.5667C30.1849 25.976 26.5983 29.564 22.1889 29.564Z" fill="black"/>
</g>
<path fill-rule="evenodd" clip-rule="evenodd" d="M16.9129 12.0508H9.71423C9.16223 12.0508 8.71423 11.6028 8.71423 11.0508C8.71423 10.4988 9.16223 10.0508 9.71423 10.0508H16.9129C17.4649 10.0508 17.9129 10.4988 17.9129 11.0508C17.9129 11.6028 17.4649 12.0508 16.9129 12.0508Z" fill="black"/>
</svg>
