<svg width="32" height="32" viewBox="0 0 32 32" fill="none" xmlns="http://www.w3.org/2000/svg">
<path fill-rule="evenodd" clip-rule="evenodd" d="M11.9764 8.40467C11.9337 8.40467 11.8911 8.41001 11.8484 8.42067C7.88841 9.39534 4.66707 13.686 4.66707 17.9847C4.66707 23.3927 9.06707 27.7927 14.4764 27.7927C19.3524 27.7927 23.4271 24.3193 24.1657 19.5327C24.1711 19.4927 24.1897 19.3767 24.0804 19.2473C23.9764 19.126 23.8111 19.054 23.6377 19.054C21.7564 19.054 20.3204 19.0967 19.1991 19.1287C16.4844 19.21 15.3617 19.2407 14.2524 18.418C12.5804 17.1793 12.4391 15.0513 12.4391 8.79267C12.4391 8.68067 12.3911 8.58734 12.2951 8.51267C12.2057 8.44201 12.0924 8.40467 11.9764 8.40467ZM14.4764 29.7927C7.96445 29.7927 2.66711 24.4953 2.66711 17.9847C2.66711 12.822 6.57111 7.65933 11.3698 6.478C12.1191 6.29533 12.9244 6.466 13.5298 6.938C14.1071 7.39133 14.4391 8.06733 14.4391 8.79267C14.4391 14.6393 14.6364 16.2127 15.4431 16.8113C15.9724 17.202 16.6978 17.198 19.1418 17.13C20.2778 17.0967 21.7324 17.054 23.6378 17.054C24.3978 17.054 25.1138 17.3793 25.5991 17.946C26.0498 18.4727 26.2471 19.1607 26.1431 19.838C25.2524 25.6047 20.3458 29.7927 14.4764 29.7927Z" fill="black"/>
<mask id="mask0_137_783" style="mask-type:luminance" maskUnits="userSpaceOnUse" x="16" y="1" width="15" height="15">
<path fill-rule="evenodd" clip-rule="evenodd" d="M16.632 1.33398H30.5239V15.0531H16.632V1.33398Z" fill="white"/>
</mask>
<g mask="url(#mask0_137_783)">
<path fill-rule="evenodd" clip-rule="evenodd" d="M18.6809 3.33573C18.5343 6.6944 18.7516 11.0331 18.8529 12.7517C18.8583 12.8544 18.9329 12.9291 19.0343 12.9344C20.4049 13.0131 25.1276 13.2317 28.5236 12.7317C28.5316 10.8597 27.2503 8.32107 25.3209 6.39307C23.3423 4.41707 21.0009 3.33573 18.7103 3.33573H18.6809ZM23.0863 15.053C21.3396 15.053 19.8023 14.9824 18.9183 14.9317C17.8063 14.8664 16.921 13.9797 16.857 12.8677C16.753 11.105 16.5276 6.62636 16.6876 3.16236C16.7316 2.1557 17.545 1.35436 18.5396 1.33703C21.389 1.25436 24.329 2.57703 26.7343 4.97836C29.0783 7.32103 30.5663 10.3997 30.5236 12.8224C30.5076 13.7677 29.821 14.557 28.893 14.697C27.0823 14.9704 24.9623 15.053 23.0863 15.053Z" fill="black"/>
</g>
</svg>
