<svg width="32" height="32" viewBox="0 0 32 32" fill="none" xmlns="http://www.w3.org/2000/svg">
<mask id="mask0_29_4801" style="mask-type:luminance" maskUnits="userSpaceOnUse" x="2" y="1" width="28" height="30">
<path fill-rule="evenodd" clip-rule="evenodd" d="M2.66663 1.33362H29.9997V30.007H2.66663V1.33362Z" fill="white"/>
</mask>
<g mask="url(#mask0_29_4801)">
<path fill-rule="evenodd" clip-rule="evenodd" d="M18.289 20.3884C19.8944 20.3884 21.201 21.6857 21.201 23.2804V27.3817C21.201 27.7244 21.4757 27.9991 21.8277 28.0071H24.369C26.3717 28.0071 27.9997 26.3991 27.9997 24.4231V12.7911C27.9904 12.1111 27.6664 11.4711 27.1104 11.0457L18.3197 4.03507C17.1397 3.1004 15.489 3.1004 14.305 4.03774L5.57438 11.0431C4.99705 11.4817 4.67305 12.1217 4.66638 12.8137V24.4231C4.66638 26.3991 6.29438 28.0071 8.29705 28.0071H10.8624C11.2237 28.0071 11.517 27.7204 11.517 27.3684C11.517 27.2911 11.5264 27.2137 11.5424 27.1404V23.2804C11.5424 21.6951 12.841 20.3991 14.4344 20.3884H18.289ZM24.369 30.007H21.8037C20.3344 29.9724 19.201 28.819 19.201 27.3817V23.2804C19.201 22.7884 18.7917 22.3884 18.289 22.3884H14.441C13.949 22.391 13.5424 22.7924 13.5424 23.2804V27.3684C13.5424 27.4684 13.529 27.5644 13.501 27.655C13.357 28.975 12.229 30.007 10.8624 30.007H8.29705C5.19172 30.007 2.66638 27.5017 2.66638 24.423V12.8044C2.67972 11.479 3.29038 10.2657 4.34505 9.46704L13.0584 2.47371C14.977 0.953708 17.6504 0.953708 19.565 2.47104L28.341 9.47104C29.3717 10.2564 29.9824 11.467 29.9997 12.7764V24.423C29.9997 27.5017 27.4744 30.007 24.369 30.007Z" fill="black"/>
</g>
</svg>
