<svg width="32" height="32" viewBox="0 0 32 32" fill="none" xmlns="http://www.w3.org/2000/svg">
<path fill-rule="evenodd" clip-rule="evenodd" d="M15.0923 29.3332H8.57766C5.31899 29.3332 2.66699 26.6812 2.66699 23.4198V8.58117C2.66699 5.31984 5.31899 2.6665 8.57766 2.6665H15.0777C18.339 2.6665 20.9923 5.31984 20.9923 8.58117V9.82384C20.9923 10.3758 20.5443 10.8238 19.9923 10.8238C19.4403 10.8238 18.9923 10.3758 18.9923 9.82384V8.58117C18.9923 6.42117 17.2363 4.6665 15.0777 4.6665H8.57766C6.42166 4.6665 4.66699 6.42117 4.66699 8.58117V23.4198C4.66699 25.5785 6.42166 27.3332 8.57766 27.3332H15.0923C17.2417 27.3332 18.9923 25.5838 18.9923 23.4345V22.1772C18.9923 21.6252 19.4403 21.1772 19.9923 21.1772C20.5443 21.1772 20.9923 21.6252 20.9923 22.1772V23.4345C20.9923 26.6878 18.3443 29.3332 15.0923 29.3332Z" fill="#FF0000"/>
<mask id="mask0_137_808" style="mask-type:luminance" maskUnits="userSpaceOnUse" x="11" y="14" width="20" height="3">
<path fill-rule="evenodd" clip-rule="evenodd" d="M11.9948 14.9998H30.0493V16.9998H11.9948V14.9998Z" fill="white"/>
</mask>
<g mask="url(#mask0_137_808)">
<path fill-rule="evenodd" clip-rule="evenodd" d="M29.0494 16.9998H12.9948C12.4428 16.9998 11.9948 16.5518 11.9948 15.9998C11.9948 15.4478 12.4428 14.9998 12.9948 14.9998H29.0494C29.6014 14.9998 30.0494 15.4478 30.0494 15.9998C30.0494 16.5518 29.6014 16.9998 29.0494 16.9998Z" fill="#FF0000"/>
</g>
<mask id="mask1_137_808" style="mask-type:luminance" maskUnits="userSpaceOnUse" x="24" y="11" width="7" height="10">
<path fill-rule="evenodd" clip-rule="evenodd" d="M24.1461 11.1135H30.0493V20.8879H24.1461V11.1135Z" fill="white"/>
</mask>
<g mask="url(#mask1_137_808)">
<path fill-rule="evenodd" clip-rule="evenodd" d="M25.1458 20.8879C24.8898 20.8879 24.6325 20.7905 24.4378 20.5932C24.0485 20.2012 24.0498 19.5692 24.4405 19.1799L27.6325 15.9999L24.4405 12.8212C24.0498 12.4319 24.0471 11.7999 24.4378 11.4079C24.8271 11.0159 25.4591 11.0159 25.8511 11.4052L29.7551 15.2919C29.9445 15.4785 30.0498 15.7345 30.0498 15.9999C30.0498 16.2652 29.9445 16.5212 29.7551 16.7079L25.8511 20.5959C25.6565 20.7905 25.4005 20.8879 25.1458 20.8879Z" fill="#FF0000"/>
</g>
</svg>
