<svg width="32" height="32" viewBox="0 0 32 32" fill="none" xmlns="http://www.w3.org/2000/svg">
<path fill-rule="evenodd" clip-rule="evenodd" d="M9.49475 23.4166C8.94275 23.4166 8.49475 22.9686 8.49475 22.4166V13.2699C8.49475 12.7179 8.94275 12.2699 9.49475 12.2699C10.0468 12.2699 10.4948 12.7179 10.4948 13.2699V22.4166C10.4948 22.9686 10.0468 23.4166 9.49475 23.4166Z" fill="black"/>
<path fill-rule="evenodd" clip-rule="evenodd" d="M15.7174 23.4152C15.1654 23.4152 14.7174 22.9672 14.7174 22.4152V8.89124C14.7174 8.33924 15.1654 7.89124 15.7174 7.89124C16.2694 7.89124 16.7174 8.33924 16.7174 8.89124V22.4152C16.7174 22.9672 16.2694 23.4152 15.7174 23.4152Z" fill="black"/>
<path fill-rule="evenodd" clip-rule="evenodd" d="M21.8378 23.4153C21.2858 23.4153 20.8378 22.9673 20.8378 22.4153V18.1033C20.8378 17.5513 21.2858 17.1033 21.8378 17.1033C22.3898 17.1033 22.8378 17.5513 22.8378 18.1033V22.4153C22.8378 22.9673 22.3898 23.4153 21.8378 23.4153Z" fill="black"/>
<path fill-rule="evenodd" clip-rule="evenodd" d="M9.41854 3.33321C5.72254 3.33321 3.33321 5.86255 3.33321 9.77988V21.5532C3.33321 25.4705 5.72254 27.9999 9.41854 27.9999H21.9145C25.6119 27.9999 27.9999 25.4705 27.9999 21.5532V9.77988C27.9999 5.86255 25.6119 3.33321 21.9145 3.33321H9.41854ZM21.9146 29.9999H9.41859C4.58259 29.9999 1.33325 26.6053 1.33325 21.5533V9.77992C1.33325 4.72792 4.58259 1.33325 9.41859 1.33325H21.9146C26.7506 1.33325 29.9999 4.72792 29.9999 9.77992V21.5533C29.9999 26.6053 26.7506 29.9999 21.9146 29.9999Z" fill="black"/>
</svg>
