<svg width="32" height="32" viewBox="0 0 32 32" fill="none" xmlns="http://www.w3.org/2000/svg">
<mask id="mask0_137_795" style="mask-type:luminance" maskUnits="userSpaceOnUse" x="2" y="2" width="27" height="29">
<path fill-rule="evenodd" clip-rule="evenodd" d="M2.66675 2.66724H28.3799V30.2952H2.66675V2.66724Z" fill="white"/>
</mask>
<g mask="url(#mask0_137_795)">
<path fill-rule="evenodd" clip-rule="evenodd" d="M9.60306 23.2539C9.90839 23.2539 10.2137 23.2925 10.5124 23.3725C11.4137 23.6152 12.1964 24.2179 12.6604 25.0272C12.9617 25.5352 13.1284 26.1285 13.1337 26.7339C13.1337 27.6005 13.8297 28.2952 14.6857 28.2952H16.3564C17.2084 28.2952 17.9044 27.6045 17.9084 26.7525C17.9031 25.8112 18.2711 24.9165 18.9444 24.2432C19.6084 23.5792 20.5364 23.1805 21.4644 23.2072C22.0724 23.2219 22.6577 23.3859 23.1737 23.6792C23.9164 24.1045 24.8644 23.8512 25.2937 23.1179L26.1791 21.6419C26.3764 21.3019 26.4337 20.8752 26.3284 20.4819C26.2244 20.0885 25.9631 19.7472 25.6111 19.5459C24.7871 19.0712 24.1991 18.3059 23.9551 17.3885C23.7137 16.4885 23.8457 15.5059 24.3164 14.6965C24.6231 14.1632 25.0724 13.7139 25.6111 13.4045C26.3337 12.9819 26.5871 12.0365 26.1671 11.3005C26.1497 11.2712 26.1337 11.2405 26.1204 11.2085L25.3391 9.85387C24.9137 9.11387 23.9671 8.85921 23.2244 9.28187C22.4217 9.75654 21.4671 9.89254 20.5497 9.65121C19.6337 9.41387 18.8657 8.83387 18.3871 8.01521C18.0804 7.50321 17.9137 6.90721 17.9084 6.30054C17.9204 5.84454 17.7604 5.43521 17.4697 5.13521C17.1804 4.83654 16.7737 4.66721 16.3564 4.66721H14.6857C14.2724 4.66721 13.8857 4.82854 13.5937 5.11921C13.3031 5.41121 13.1444 5.79921 13.1471 6.21254C13.1191 8.16187 11.5257 9.73121 9.59639 9.73121C8.97772 9.72454 8.38172 9.55787 7.86439 9.24854C7.13772 8.83521 6.18839 9.08987 5.76306 9.82987L4.86039 11.3139C4.44706 12.0312 4.70039 12.9792 5.43639 13.4072C6.52839 14.0392 7.20972 15.2179 7.20972 16.4819C7.20972 17.7459 6.52839 18.9232 5.43372 19.5565C4.70172 19.9805 4.44839 20.9232 4.87239 21.6565L5.71372 23.1072C5.92172 23.4819 6.26172 23.7525 6.65506 23.8632C7.04706 23.9725 7.47906 23.9259 7.83906 23.7259C8.36839 23.4152 8.98439 23.2539 9.60306 23.2539ZM16.3564 30.2952H14.6857C12.7271 30.2952 11.1337 28.7032 11.1337 26.7446C11.1311 26.5032 11.0617 26.2526 10.9324 26.0352C10.7231 25.6699 10.3844 25.4086 9.99372 25.3046C9.60572 25.2006 9.18039 25.2579 8.83105 25.4606C7.99372 25.9272 7.00839 26.0406 6.10705 25.7872C5.20705 25.5326 4.42972 24.9139 3.97372 24.0939L3.14039 22.6579C2.16572 20.9672 2.74572 18.8006 4.43372 17.8246C4.91239 17.5486 5.20972 17.0339 5.20972 16.4819C5.20972 15.9299 4.91239 15.4139 4.43372 15.1379C2.74439 14.1566 2.16572 11.9846 3.13905 10.2939L4.04305 8.8099C5.00439 7.1379 7.17772 6.54857 8.87239 7.5219C9.10305 7.65924 9.35372 7.72857 9.60839 7.73124C10.4391 7.73124 11.1337 7.0459 11.1471 6.20324C11.1417 5.2739 11.5084 4.3819 12.1764 3.70857C12.8471 3.03657 13.7377 2.66724 14.6857 2.66724H16.3564C17.3111 2.66724 18.2391 3.05924 18.9044 3.74057C19.5684 4.4259 19.9351 5.3659 19.9071 6.31924C19.9097 6.5339 19.9804 6.7819 20.1084 6.99924C20.3204 7.35924 20.6551 7.61257 21.0524 7.71657C21.4497 7.81524 21.8657 7.7619 22.2191 7.55257C23.9257 6.5779 26.0977 7.1619 27.0724 8.85524L27.9031 10.2939C27.9244 10.3326 27.9431 10.3699 27.9591 10.4086C28.8417 12.0766 28.2524 14.1766 26.6124 15.1352C26.3737 15.2726 26.1804 15.4646 26.0471 15.6966C25.8404 16.0552 25.7831 16.4819 25.8871 16.8739C25.9937 17.2739 26.2484 17.6059 26.6071 17.8112C27.4164 18.2766 28.0204 19.0606 28.2617 19.9659C28.5031 20.8699 28.3711 21.8512 27.9004 22.6606L27.0151 24.1352C26.0404 25.8099 23.8684 26.3899 22.1791 25.4139C21.9537 25.2846 21.6937 25.2139 21.4351 25.2072H21.4271C21.0417 25.2072 20.6457 25.3712 20.3577 25.6579C20.0657 25.9499 19.9057 26.3392 19.9084 26.7526C19.8991 28.7112 18.3057 30.2952 16.3564 30.2952Z" fill="black"/>
</g>
<path fill-rule="evenodd" clip-rule="evenodd" d="M15.5269 13.9661C14.1403 13.9661 13.0123 15.0955 13.0123 16.4821C13.0123 17.8688 14.1403 18.9955 15.5269 18.9955C16.9136 18.9955 18.0416 17.8688 18.0416 16.4821C18.0416 15.0955 16.9136 13.9661 15.5269 13.9661ZM15.5269 20.9954C13.0375 20.9954 11.0122 18.9714 11.0122 16.4821C11.0122 13.9927 13.0375 11.9661 15.5269 11.9661C18.0162 11.9661 20.0415 13.9927 20.0415 16.4821C20.0415 18.9714 18.0162 20.9954 15.5269 20.9954Z" fill="black"/>
</svg>
