<svg width="32" height="32" viewBox="0 0 32 32" fill="none" xmlns="http://www.w3.org/2000/svg">
<path fill-rule="evenodd" clip-rule="evenodd" d="M20.9544 22.6316H11.3278C10.7758 22.6316 10.3278 22.1836 10.3278 21.6316C10.3278 21.0796 10.7758 20.6316 11.3278 20.6316H20.9544C21.5064 20.6316 21.9544 21.0796 21.9544 21.6316C21.9544 22.1836 21.5064 22.6316 20.9544 22.6316Z" fill="black"/>
<path fill-rule="evenodd" clip-rule="evenodd" d="M20.9544 17.0496H11.3278C10.7758 17.0496 10.3278 16.6016 10.3278 16.0496C10.3278 15.4976 10.7758 15.0496 11.3278 15.0496H20.9544C21.5064 15.0496 21.9544 15.4976 21.9544 16.0496C21.9544 16.6016 21.5064 17.0496 20.9544 17.0496Z" fill="black"/>
<path fill-rule="evenodd" clip-rule="evenodd" d="M15.0007 11.4805H11.3274C10.7754 11.4805 10.3274 11.0325 10.3274 10.4805C10.3274 9.92847 10.7754 9.48047 11.3274 9.48047H15.0007C15.5527 9.48047 16.0007 9.92847 16.0007 10.4805C16.0007 11.0325 15.5527 11.4805 15.0007 11.4805Z" fill="black"/>
<mask id="mask0_137_787" style="mask-type:luminance" maskUnits="userSpaceOnUse" x="4" y="2" width="25" height="28">
<path fill-rule="evenodd" clip-rule="evenodd" d="M4 2.66687H28.2196V29.2133H4V2.66687Z" fill="white"/>
</mask>
<g mask="url(#mask0_137_787)">
<path fill-rule="evenodd" clip-rule="evenodd" d="M21.2116 4.66667L10.9596 4.672C7.8556 4.69067 5.9996 6.61067 5.9996 9.80933V22.0707C5.9996 25.2907 7.87294 27.2133 11.0076 27.2133L21.2596 27.2093C24.3636 27.1907 26.2196 25.268 26.2196 22.0707V9.80933C26.2196 6.58933 24.3476 4.66667 21.2116 4.66667ZM11.009 29.2133C6.81697 29.2133 3.99963 26.3426 3.99963 22.0706V9.80929C3.99963 5.49863 6.72897 2.69729 10.953 2.67196L21.2103 2.66663H21.2116C25.4036 2.66663 28.2196 5.53729 28.2196 9.80929V22.0706C28.2196 26.38 25.4903 29.1826 21.2663 29.2093L11.009 29.2133Z" fill="black"/>
</g>
</svg>
